<svg xmlns="http://www.w3.org/2000/svg" width="170" height="40" viewBox="0 0 170 40"><defs><style>.a { fill: #fff; } .b { fill: #fff; stroke: #fff; stroke-width: 0.25px; }</style></defs><title>uog-logo-col-paths</title><path d="M20.4 15.5V7.64L10.2 0 0 7.46v7.84l10.16-7.73L20.4 15.5z" class="a"/><path d="M31.85 17.1a1.17 1.17 0 0 0-.94.3 1.28 1.28 0 0 0-.28.8v4.6a3.8 3.8 0 0 1-4 3.73c-2.5 0-4.16-1.3-4.16-3.4v-5.38a.53.53 0 0 0-.1-.38 1 1 0 0 0-.74-.26h-.5v-.38h4v.38h-.55a.73.73 0 0 0-.6.25.6.6 0 0 0-.12.4v5.34a2.6 2.6 0 0 0 2.82 2.75 3 3 0 0 0 3.14-3.06v-4.62a.94.94 0 0 0-.32-.82 1.12 1.12 0 0 0-.86-.26h-.18v-.38H32v.38h-.15zM44.55 17.1a1.13 1.13 0 0 0-.93.37 1.1 1.1 0 0 0-.23.8v8.1h-.5l-7.35-8v6.46a1.05 1.05 0 0 0 .17.65 1.4 1.4 0 0 0 1.2.55h.3v.34h-3.7V26h.22a1.15 1.15 0 0 0 .94-.42 1.1 1.1 0 0 0 .23-.82V18a1.77 1.77 0 0 0-.7-.67 1.94 1.94 0 0 0-1.06-.26v-.35h2.73l6.88 7.5v-5.96a1 1 0 0 0-.17-.67 1.26 1.26 0 0 0-1.1-.5h-.4v-.38h3.7v.38h-.23zM46.28 26.36V26h.52a.8.8 0 0 0 .63-.22.55.55 0 0 0 .14-.44v-7.6a.5.5 0 0 0-.1-.37 1 1 0 0 0-.74-.26h-.45v-.38h4v.38h-.56a.73.73 0 0 0-.6.25.6.6 0 0 0-.12.4v7.55a.56.56 0 0 0 .2.48 1.7 1.7 0 0 0 .8.22h.33v.34h-4zM62 17.08a.87.87 0 0 0-.5.14 1.93 1.93 0 0 0-.72 1l-3.64 8.13h-.75L53.1 18a1.67 1.67 0 0 0-.62-.73.94.94 0 0 0-.6-.16h-.12v-.38h4.1v.38h-.3a.86.86 0 0 0-.57.17.7.7 0 0 0-.22.85l2.42 6.63 2.93-6.6a.72.72 0 0 0-.23-.85.93.93 0 0 0-.64-.18H59v-.4h3.26v.38H62zM71 26.36h-7.44V26l.5-.08a.86.86 0 0 0 .63-.24.78.78 0 0 0 .16-.6v-7.33a.6.6 0 0 0-.13-.38 1 1 0 0 0-.73-.26h-.44v-.38h6.86v2.22H70l-.1-.54a1.58 1.58 0 0 0-.5-.93 1.4 1.4 0 0 0-1-.3h-2.08v3.92h1.36a1.74 1.74 0 0 0 1-.23 1 1 0 0 0 .37-.74v-.24h.4v2.9h-.4v-.26a1.08 1.08 0 0 0-.37-.72 1.78 1.78 0 0 0-1.07-.3h-1.3v3a1.2 1.2 0 0 0 .37 1.13 1.42 1.42 0 0 0 .9.24H69a2 2 0 0 0 1-.3 2.35 2.35 0 0 0 .86-1.14l.24-.6h.37zM80.5 26.36a1.85 1.85 0 0 1-.4 0 .9.9 0 0 1-.57-.36l-2.46-3.88h-1.43v3.18a.57.57 0 0 0 .2.48 1.33 1.33 0 0 0 .77.22h.3v.34h-4V26l.5-.07a.83.83 0 0 0 .6-.2.56.56 0 0 0 .16-.44v-7.55a.53.53 0 0 0-.16-.38.94.94 0 0 0-.7-.26h-.43v-.38h3.9a3.86 3.86 0 0 1 2.86.76 2.6 2.6 0 0 1-.43 3.83 2.45 2.45 0 0 1-.83.5l-.2.07 2.24 3a4.26 4.26 0 0 0 .82.9 3.86 3.86 0 0 0 .6.42v.16h-1.33zm-3.6-9.2h-1.26v4.5h.8a2.55 2.55 0 0 0 1.56-.32c1.1-.72 1-2.92.3-3.7a1.72 1.72 0 0 0-1.4-.48zM86.24 26.57a8.42 8.42 0 0 1-3-.44V24h.4v.25a2.28 2.28 0 0 0 2.44 1.88A1.8 1.8 0 0 0 88 24.3a2.48 2.48 0 0 0-1.34-1.95l-1.77-1.2c-.9-.6-1.74-1.35-1.48-2.6s1.86-1.93 3.42-2a5.46 5.46 0 0 1 2 .33v1.9h-.4l-.06-.4A1.76 1.76 0 0 0 86.54 17a1.68 1.68 0 0 0-1.62 1.14 1.38 1.38 0 0 0 .56 1.53l2.76 1.94a2.7 2.7 0 0 1 1.34 2.2c.07 1.63-1.58 2.64-3.34 2.73zM91.24 26.36V26h.5a.8.8 0 0 0 .64-.22.55.55 0 0 0 .14-.44v-7.6a.5.5 0 0 0-.1-.37 1 1 0 0 0-.74-.26h-.44v-.38h4v.38h-.56a.73.73 0 0 0-.6.25.6.6 0 0 0-.12.4v7.55a.56.56 0 0 0 .2.48A1.7 1.7 0 0 0 95 26h.28v.34h-4zM105.53 18.77l-.27-.46a2.2 2.2 0 0 0-.7-.88 1.86 1.86 0 0 0-1.14-.25H102v8.13a.53.53 0 0 0 .27.48 1.42 1.42 0 0 0 .76.22h.3v.34h-4V26h.5a1 1 0 0 0 .64-.24.68.68 0 0 0 .14-.44v-8.15h-1.34a2 2 0 0 0-1.17.3 2.2 2.2 0 0 0-.72 1l-.23.4h-.35l.36-2.12h8.35l.4 2.05h-.36zM116.5 17.1a.92.92 0 0 0-.5.13 1.76 1.76 0 0 0-.5.58l-2.5 4.13a1.7 1.7 0 0 0-.3.94v2.37a.66.66 0 0 0 .17.5 1 1 0 0 0 .6.2l.53.06v.34h-4V26h.3a1 1 0 0 0 .8-.26.8.8 0 0 0 .2-.6v-2.67l-2.55-4.57a2.28 2.28 0 0 0-.54-.6 1.4 1.4 0 0 0-.65-.2h-.17v-.38h3.83v.38h-.3a.63.63 0 0 0-.57.2.7.7 0 0 0 0 .75l2 3.78 2.16-3.63a.65.65 0 0 0-.58-1.1h-.36v-.38h3.1v.38h-.16zM127.6 26.58a5.07 5.07 0 0 1-5.3-4.86 5.42 5.42 0 0 1 5.4-5.15c3 0 5.37 1.83 5.37 4.86a5.46 5.46 0 0 1-5.48 5.15zm0-9.58c-2.38 0-3.53 2-3.53 4.54 0 2.25 1.54 4.54 3.66 4.54 2.6 0 3.66-1.9 3.66-4.7-.04-1.95-1.27-4.38-3.84-4.38zM141 18.94l-.16-.55a1.55 1.55 0 0 0-.5-.93 1.38 1.38 0 0 0-1-.33h-2.12v4.25h1.53a1.9 1.9 0 0 0 1-.23 1 1 0 0 0 .36-.76v-.2h.4v2.9h-.4v-.27a1.06 1.06 0 0 0-.34-.7 1.74 1.74 0 0 0-1.1-.3h-1.46v3.47a.54.54 0 0 0 .2.48 1.7 1.7 0 0 0 .78.18l.34.04v.34h-4V26h.48a.85.85 0 0 0 .64-.22.55.55 0 0 0 .14-.44v-7.6a.58.58 0 0 0-.1-.37.94.94 0 0 0-.74-.26h-.44v-.38h6.85v2.22H141zM31.43 35.57a.86.86 0 0 0-.63.2.7.7 0 0 0-.14.57v2.94l-1.1.33a8.5 8.5 0 0 1-5.9-.4 4.44 4.44 0 0 1-2.4-4.08C21.2 32.26 23.9 30 27 29.95a10.17 10.17 0 0 1 2.84.38l.34.1a.64.64 0 0 1 .34.2.5.5 0 0 1 .1.38v1.7h-.33l-.1-.47c-.25-1.22-1.4-1.75-2.87-1.8-3.17-.16-4.43 2.07-4.32 4.33.15 2.63 1.08 4.6 4.18 4.7A1.86 1.86 0 0 0 29 38.9a2.68 2.68 0 0 0 .23-1.3v-1a1 1 0 0 0-.14-.7 1.6 1.6 0 0 0-1-.27h-.42v-.42H32v.32zM40.68 39.78h-7.4v-.34l.5-.07a.9.9 0 0 0 .64-.22 1.54 1.54 0 0 0 .16-.82v-7.17a.5.5 0 0 0-.1-.38 1 1 0 0 0-.74-.26h-.47v-.4h4v.4h-.54a.73.73 0 0 0-.6.24.6.6 0 0 0-.12.4v7.1a.94.94 0 0 0 .25.77 1.5 1.5 0 0 0 1 .26h1a2.3 2.3 0 0 0 1.4-.3 2.54 2.54 0 0 0 .87-1.12l.23-.6h.37zM48.07 40a5.07 5.07 0 0 1-5.3-4.86 5.42 5.42 0 0 1 5.4-5.14c3 0 5.38 1.83 5.38 4.86A5.46 5.46 0 0 1 48.07 40zm0-9.58c-2.37 0-3.52 2-3.52 4.54 0 2.25 1.54 4.54 3.66 4.54 2.6 0 3.67-1.9 3.67-4.7-.03-1.95-1.26-4.38-3.87-4.38zM65.7 30.5a1.17 1.17 0 0 0-.93.3 1.27 1.27 0 0 0-.3.82v4.6a3.8 3.8 0 0 1-4 3.73c-2.48 0-4.15-1.3-4.15-3.4v-5.4a.52.52 0 0 0-.1-.37 1 1 0 0 0-.74-.26H55v-.4h4v.4h-.54a.73.73 0 0 0-.6.24.6.6 0 0 0-.12.4v5.34a2.6 2.6 0 0 0 2.82 2.76 3 3 0 0 0 3.14-3.06v-4.6a.94.94 0 0 0-.33-.82 1.12 1.12 0 0 0-.86-.26h-.2v-.4h3.58v.4h-.17zM76.57 39.35a9.9 9.9 0 0 1-3.4.6c-3.78 0-5.78-2-5.78-4.75 0-2.93 2.5-5.2 5.78-5.2a7.47 7.47 0 0 1 3.46.7v2.08h-.38l-.1-.5c-.24-1.2-1.44-1.8-3-1.8-3.1 0-4 2.46-4 4.73s1.23 4.3 4.27 4.3a3.55 3.55 0 0 0 2.33-.76 2.36 2.36 0 0 0 .77-1l.17-.38h.4zM85.88 39.78H78.4v-.34l.5-.08a.86.86 0 0 0 .63-.24.78.78 0 0 0 .17-.6v-7.36a.6.6 0 0 0-.13-.38 1 1 0 0 0-.73-.26h-.44v-.4h6.86v2.23h-.38l-.1-.54a1.58 1.58 0 0 0-.5-.92 1.4 1.4 0 0 0-1-.3h-2.12v3.92h1.36a1.74 1.74 0 0 0 1-.22 1 1 0 0 0 .37-.74v-.24h.38v2.9h-.4V36a1.08 1.08 0 0 0-.36-.72 1.8 1.8 0 0 0-1.06-.28h-1.3v3a1.2 1.2 0 0 0 .36 1.12 1.42 1.42 0 0 0 .9.24h1.37a2 2 0 0 0 1.08-.36 2.35 2.35 0 0 0 .86-1.14l.26-.57h.37zM90.8 40a8.4 8.4 0 0 1-3-.44V37.4h.4v.26a2.28 2.28 0 0 0 2.44 1.88 1.8 1.8 0 0 0 1.9-1.83 2.48 2.48 0 0 0-1.34-1.94l-1.77-1.2C88.57 34 87.73 33.22 88 32s1.84-2 3.4-2a5.46 5.46 0 0 1 2 .33v1.9H93l-.07-.4a1.75 1.75 0 0 0-1.84-1.36 1.68 1.68 0 0 0-1.63 1.14 1.38 1.38 0 0 0 .53 1.54l2.76 1.95a2.7 2.7 0 0 1 1.34 2.2c.1 1.6-1.53 2.6-3.3 2.7zM104.43 32.18l-.27-.46a2.2 2.2 0 0 0-.7-.9 1.87 1.87 0 0 0-1.14-.24h-1.4v8.13a.53.53 0 0 0 .28.5 1.4 1.4 0 0 0 .76.2h.3v.35h-4v-.3l.5-.06a1 1 0 0 0 .65-.25.68.68 0 0 0 .15-.44v-8.1h-1.4a2 2 0 0 0-1.16.28 2.2 2.2 0 0 0-.72 1l-.28.37h-.3l.36-2.12h8.35l.4 2.05h-.36zM113.7 39.78h-7.47v-.34l.5-.08a.86.86 0 0 0 .63-.24.77.77 0 0 0 .17-.6v-7.36a.6.6 0 0 0-.13-.38 1 1 0 0 0-.73-.26h-.44v-.4h6.86v2.23h-.4l-.1-.54a1.58 1.58 0 0 0-.5-.92 1.4 1.4 0 0 0-1-.3H109v3.92h1.36a1.74 1.74 0 0 0 1-.22 1 1 0 0 0 .37-.74v-.24h.4v2.9h-.4V36a1.08 1.08 0 0 0-.37-.72 1.78 1.78 0 0 0-1.07-.3H109v3a1.2 1.2 0 0 0 .36 1.13 1.42 1.42 0 0 0 .9.25h1.37a2 2 0 0 0 1.1-.27 2.35 2.35 0 0 0 .85-1.14l.24-.6h.37zM123.16 39.78a1.83 1.83 0 0 1-.4 0 .9.9 0 0 1-.56-.35l-2.46-3.88h-1.43v3.22a.57.57 0 0 0 .2.48 1.33 1.33 0 0 0 .78.22h.3v.34h-4v-.36l.5-.07a.83.83 0 0 0 .63-.22.56.56 0 0 0 .17-.44v-7.54a.53.53 0 0 0-.14-.38.94.94 0 0 0-.7-.26h-.45v-.4h3.9a3.86 3.86 0 0 1 2.86.77 2.6 2.6 0 0 1-.43 3.82 2.46 2.46 0 0 1-.82.48l-.2.08 2.24 3a4.26 4.26 0 0 0 .82.9 3.86 3.86 0 0 0 .6.42v.17h-1.34zm-3.6-9.2h-1.25v4.5h.8a2.55 2.55 0 0 0 1.54-.32c1.1-.72 1-2.9.3-3.7a1.72 1.72 0 0 0-1.37-.48zM128.9 40a8.4 8.4 0 0 1-3-.44V37.4h.4v.26a2.28 2.28 0 0 0 2.44 1.88 1.8 1.8 0 0 0 1.9-1.83 2.48 2.48 0 0 0-1.34-1.94l-1.77-1.2c-.9-.6-1.73-1.35-1.47-2.6s1.86-1.93 3.42-2a5.46 5.46 0 0 1 2 .33v1.9h-.4l-.08-.38a1.75 1.75 0 0 0-1.84-1.35 1.68 1.68 0 0 0-1.62 1.14 1.38 1.38 0 0 0 .56 1.54l2.76 1.95a2.7 2.7 0 0 1 1.34 2.2c.12 1.6-1.52 2.6-3.3 2.7zM140.64 39.78v-.34l.3-.05a1.42 1.42 0 0 0 .78-.2.53.53 0 0 0 .2-.47v-3.95h-5.35v3.93a.53.53 0 0 0 .2.5 1.32 1.32 0 0 0 .78.2h.3v.34h-4.05v-.3l.5-.07a.85.85 0 0 0 .64-.22.55.55 0 0 0 .14-.44v-7.54a.58.58 0 0 0-.1-.38 1 1 0 0 0-.74-.26h-.44v-.4h4.07v.4h-.6a.75.75 0 0 0-.6.24.57.57 0 0 0-.1.4v3h5.35v-3a.6.6 0 0 0-.1-.4.73.73 0 0 0-.62-.25h-.6v-.37h4.08v.38h-.44a1 1 0 0 0-.7.27.52.52 0 0 0-.14.38v7.54a.55.55 0 0 0 .14.43.85.85 0 0 0 .64.22l.5.07v.34h-4.06zM146.27 39.78v-.34l.5-.07a.8.8 0 0 0 .64-.22.55.55 0 0 0 .15-.44v-7.54a.5.5 0 0 0-.1-.38 1 1 0 0 0-.74-.26h-.43v-.4h4v.4h-.56a.73.73 0 0 0-.6.24.6.6 0 0 0-.1.4v7.54a.56.56 0 0 0 .2.48 1.7 1.7 0 0 0 .77.18l.3.05v.35h-4zM159.35 39.78a1.83 1.83 0 0 1-.4 0 .9.9 0 0 1-.56-.35l-2.47-3.88h-1.43v3.22a.57.57 0 0 0 .2.48 1.33 1.33 0 0 0 .77.22h.3v.34h-4v-.36l.5-.07a.83.83 0 0 0 .63-.22.56.56 0 0 0 .16-.44v-7.54a.53.53 0 0 0-.14-.38.94.94 0 0 0-.7-.26h-.45v-.4h3.9a3.86 3.86 0 0 1 2.86.77 2.6 2.6 0 0 1-.43 3.82 2.46 2.46 0 0 1-.83.48l-.2.08 2.24 3a4.26 4.26 0 0 0 .83.9 3.86 3.86 0 0 0 .6.42v.17h-1.34zm-3.6-9.2h-1.25v4.5h.8a2.55 2.55 0 0 0 1.53-.32c1.1-.72 1-2.9.3-3.7a1.72 1.72 0 0 0-1.37-.48zM169.53 39.78h-7.48v-.34l.5-.08a.86.86 0 0 0 .63-.24.78.78 0 0 0 .17-.6v-7.36a.62.62 0 0 0-.13-.38 1 1 0 0 0-.73-.26h-.45v-.4h6.86v2.23h-.38l-.1-.54a1.58 1.58 0 0 0-.5-.92 1.4 1.4 0 0 0-1-.3h-2.13v3.92h1.35a1.74 1.74 0 0 0 1-.22 1 1 0 0 0 .37-.74v-.24h.48v2.9h-.4V36a1.08 1.08 0 0 0-.36-.72 1.8 1.8 0 0 0-1.07-.3h-1.3v3a1.2 1.2 0 0 0 .36 1.13 1.42 1.42 0 0 0 .9.25h1.37a2 2 0 0 0 1.1-.27 2.35 2.35 0 0 0 .85-1.14l.24-.6h.3z" class="b"/></svg>